<?xml version="1.0" encoding="utf-8"?>
<!-- Generator: Adobe Illustrator 23.0.4, SVG Export Plug-In . SVG Version: 6.00 Build 0)  -->
<svg version="1.1" id="Ebene_1" xmlns="http://www.w3.org/2000/svg" xmlns:xlink="http://www.w3.org/1999/xlink" x="0px" y="0px"
	 viewBox="0 0 283.46 112" style="enable-background:new 0 0 283.46 112;" xml:space="preserve">
<style type="text/css">
	.st0{fill:#FFFFFF;}
</style>
<g>
	<path class="st0" d="M38.82,57.29c8.89,0,13.2-3.58,13.2-10.91c0-7.52-4.49-10-13.2-10h-8.71v20.91H38.82z M19.48,27.86h20.17
		c13.11,0,22.83,4.59,22.83,18.52c0,13.29-9.9,19.43-22.83,19.43h-9.53v22H19.48V27.86z"/>
	<path class="st0" d="M68.44,23.09h10.54v16.69l-0.37,8.71C82.37,44.9,86.86,41.7,93,41.7c9.63,0,13.84,6.51,13.84,17.88v28.24H96.3
		V60.95c0-7.43-2.11-10.17-7.06-10.17c-3.94,0-6.51,1.93-10.27,5.59v31.45H68.44V23.09z"/>
	<path class="st0" d="M112.81,42.8h8.71l0.73,7.97h0.37c3.21-5.86,7.97-9.07,12.74-9.07c2.29,0,3.76,0.27,5.13,0.91l-1.83,9.17
		c-1.56-0.46-2.75-0.73-4.68-0.73c-3.57,0-7.88,2.47-10.63,9.26v27.5h-10.54V42.8z"/>
	<path class="st0" d="M159.29,80.66c3.67,0,6.51-1.83,9.81-4.95V65.62c-12.19,1.56-16.23,4.77-16.23,9.26
		C152.87,78.92,155.53,80.66,159.29,80.66 M169.1,59.02c-0.09-4.76-2.11-8.8-8.16-8.8c-4.49,0-8.71,2.02-12.65,4.4l-3.85-7.06
		c4.95-3.12,11.27-5.87,18.43-5.87c11.27,0,16.77,6.88,16.77,19.43v26.68h-8.62l-0.82-4.95h-0.28c-4.03,3.39-8.62,6.05-13.93,6.05
		c-7.88,0-13.39-5.32-13.39-13.2C142.61,66.08,150.67,61.04,169.1,59.02"/>
	<path class="st0" d="M189.64,75.89c4.03,3.12,7.88,5.04,12.47,5.04c4.86,0,7.15-2.29,7.15-5.41c0-3.76-4.86-5.41-9.63-7.24
		c-5.96-2.2-12.65-5.59-12.65-13.11c0-7.88,6.33-13.48,16.41-13.48c6.24,0,11.28,2.57,14.95,5.41l-4.86,6.42
		c-3.12-2.29-6.33-3.85-9.9-3.85c-4.5,0-6.6,2.11-6.6,4.95c0,3.58,4.49,4.95,9.35,6.7c6.14,2.29,12.93,5.22,12.93,13.66
		c0,7.7-6.15,13.94-17.51,13.94c-6.14,0-12.65-2.66-17.05-6.24L189.64,75.89z"/>
	<path class="st0" d="M254.82,61.31c0-7.15-3.02-11.46-9.17-11.46c-5.32,0-9.9,3.94-10.81,11.46H254.82z M245.38,41.7
		c12.19,0,18.6,8.8,18.6,21.36c0,2.02-0.18,3.85-0.46,4.95h-28.59c0.91,8.16,6.05,12.74,13.29,12.74c3.85,0,7.15-1.19,10.45-3.3
		l3.57,6.6c-4.31,2.84-9.72,4.86-15.4,4.86c-12.47,0-22.19-8.71-22.19-23.56C224.66,50.68,234.84,41.7,245.38,41.7"/>
</g>
</svg>
