<svg fill="none" height="40" viewBox="0 0 100 40" width="100" xmlns="http://www.w3.org/2000/svg" xmlns:xlink="http://www.w3.org/1999/xlink"><clipPath id="a"><path d="m0 0h100v40h-100z"/></clipPath><g clip-path="url(#a)" fill="#fff"><path d="m8.75182 14.0151c3.56328 0 5.29078-1.435 5.29078-4.37296 0-3.01415-1.7997-4.00818-5.29078-4.00818h-3.49112v8.38114zm-7.75182-11.79611h8.0845c5.2547 0 9.1507 1.83976 9.1507 7.42315 0 5.32686-3.9681 7.78786-9.1507 7.78786h-3.8198v8.818h-4.2647z"/><path d="m20.624.307068h4.2246v6.689652l-.1483 3.49108c1.5071-1.43889 3.3068-2.72151 5.7678-2.72151 3.8599 0 5.5473 2.60931 5.5473 7.16661v11.3191h-4.2246v-10.77c0-2.978-.8457-4.0763-2.8298-4.0763-1.5792 0-2.6093.7736-4.1164 2.2406v12.6057h-4.2206z"/><path d="m38.4083 8.2072h3.4911l.2926 3.1945h.1484c1.2866-2.34878 3.1945-3.6354 5.1064-3.6354.9178 0 1.507.10822 2.0562.36474l-.7335 3.67546c-.6253-.1843-1.1023-.2926-1.8759-.2926-1.4309 0-3.1584.9901-4.2607 3.7116v11.0225h-4.2246z"/><path d="m57.0383 23.3821c1.471 0 2.6094-.7335 3.9321-1.984v-4.0443c-4.886.6253-6.5053 1.9119-6.5053 3.7116 0 1.6193 1.0662 2.3167 2.5732 2.3167zm3.9321-8.6737c-.0361-1.9078-.8458-3.5272-3.2707-3.5272-1.7997 0-3.4911.8097-5.0704 1.7636l-1.5431-2.8297c1.984-1.25058 4.5172-2.35283 7.3871-2.35283 4.5172 0 6.7217 2.75763 6.7217 7.78793v10.6938h-3.4551l-.3286-1.9841h-.1123c-1.6153 1.3588-3.455 2.425-5.5834 2.425-3.1584 0-5.3669-2.1324-5.3669-5.2908.004-3.8559 3.2346-5.876 10.6217-6.6857z"/><path d="m69.2032 21.4702c1.6153 1.2506 3.1584 2.0202 4.9982 2.0202 1.948 0 2.8658-.9179 2.8658-2.1685 0-1.507-1.9479-2.1684-3.8598-2.9019-2.3889-.8818-5.0704-2.2406-5.0704-5.2547 0-3.1585 2.5372-5.40303 6.5774-5.40303 2.5011 0 4.5213 1.0301 5.9923 2.16842l-1.948 2.57321c-1.2506-.9178-2.5372-1.5431-3.9681-1.5431-1.8037 0-2.6454.8457-2.6454 1.984 0 1.435 1.7997 1.9841 3.7476 2.6855 2.4611.9179 5.1826 2.0923 5.1826 5.4752 0 3.0863-2.465 5.5874-7.0183 5.5874-2.461 0-5.0704-1.0662-6.834-2.5011z"/><path d="m95.3285 15.6263c0-2.8658-1.2105-4.5933-3.6755-4.5933-2.1324 0-3.9681 1.5792-4.3329 4.5933zm-3.7838-7.86c4.886 0 7.4553 3.5272 7.4553 8.5615 0 .8096-.0722 1.5431-.1844 1.984h-11.4594c.3647 3.2707 2.4249 5.1064 5.3269 5.1064 1.5431 0 2.8658-.4769 4.1885-1.3227l1.4309 2.6454c-1.7275 1.1384-3.8959 1.948-6.1726 1.948-4.9982 0-8.8941-3.4911-8.8941-9.4433.004-5.88 4.0843-9.4793 8.3089-9.4793z"/><g opacity=".8"><g clip-rule="evenodd" fill-rule="evenodd"><path d="m50.9377 36.3478.9416-6.2479h1.9207v8.8h-1.3057v-6.3109l-.954 6.3109h-1.3056l-1.0296-6.223v6.223h-1.2051v-8.8h1.9207z"/><path d="m56.5936 33.8085h1.9127v1.2571h-1.9127v2.5771h2.4066v1.2572h-3.8v-8.8h3.8v1.2571h-2.4066z"/><path d="m63.3376 36.3478.9418-6.2479h1.9206v8.8h-1.3056v-6.3109l-.9541 6.3109h-1.3056l-1.0295-6.223v6.223h-1.2052v-8.8h1.9208z"/><path d="m69.513 30c1.37 0 2.0744.8044 2.0744 2.2123v.2766h-1.3317v-.3646c0-.6285-.2561-.8672-.7044-.8672-.448 0-.7041.2387-.7041.8672 0 1.8101 2.7529 2.1494 2.7529 4.6634 0 1.4079-.7171 2.2123-2.1 2.2123-1.3827 0-2.1-.8044-2.1-2.2123v-.5405h1.3317v.6285c0 .6285.2818.8547.73.8547.4483 0 .7298-.2262.7298-.8547 0-1.81-2.7531-2.1494-2.7531-4.6634 0-1.4079.7044-2.2123 2.0745-2.2123z"/><path d="m74.2001 36.7442c0 .6202.2703.8558.7.8558.4298 0 .7-.2356.7-.8558v-4.6884c0-.6202-.2702-.8558-.7-.8558-.4297 0-.7.2356-.7.8558zm-1.4-4.5319c0-1.4077.7419-2.2123 2.1-2.2123 1.3582 0 2.1.8046 2.1 2.2123v4.5754c0 1.408-.7418 2.2123-2.1 2.2123-1.3581 0-2.1-.8043-2.1-2.2123z"/><path d="m79.6085 30.0999v6.7783c0 .6277.2816.8538.7301.8538.448 0 .7298-.2261.7298-.8538v-6.7783h1.3317v6.6906c0 1.4059-.717 2.2094-2.1 2.2094-1.3829 0-2.1-.8035-2.1-2.2094v-6.6906z"/><path d="m85.2 31.2999v2.8h.5524c.5265 0 .8476-.2344.8476-.9639v-.8986c0-.6511-.2184-.9375-.7193-.9375zm1.5592 7.6c-.0771-.2263-.1286-.3645-.1286-1.081v-1.3831c0-.8169-.2831-1.1187-.9265-1.1187h-.4889v3.5828h-1.4152v-8.8h2.1357c1.4666 0 2.0969.6663 2.0969 2.024v.6914c0 .9053-.2959 1.4962-.9261 1.7853.7077.2891.9391.9553.9391 1.8731v1.3576c0 .4275.0128.7418.1544 1.0686z"/><path d="m93.4001 35.6188v1.1688c0 1.408-.7171 2.2124-2.1003 2.2124-1.3829 0-2.0997-.8044-2.0997-2.2124v-4.5753c0-1.4077.7168-2.2123 2.0997-2.2123 1.3832 0 2.1003.8046 2.1003 2.2123v.8548h-1.3317v-.9427c0-.6285-.2819-.8673-.73-.8673s-.7299.2388-.7299.8673v4.7512c0 .6285.2818.8548.7299.8548s.73-.2263.73-.8548v-1.2568z"/><path d="m95.9936 33.8085h1.9126v1.2571h-1.9126v2.5771h2.4065v1.2572h-3.8v-8.8h3.8v1.2571h-2.4065z"/></g><path d="m38.9504 38.152v-1.72h.496c.128 0 .2454.0133.352.04.1067.0267.1974.0747.272.144.08.064.1414.152.184.264.048.1067.072.2427.072.408 0 .3307-.0853.5573-.256.68-.1706.1227-.3946.184-.672.184zm0-2.52v-1.496h.416c.288 0 .4987.056.632.168.1334.112.2.304.2.576s-.0746.4667-.224.584c-.144.112-.376.168-.696.168zm-1.152-2.344v5.712h1.944c.336 0 .616-.0453.84-.136.2294-.0907.4134-.2107.552-.36.144-.1547.2454-.3333.304-.536.0587-.2027.088-.416.088-.64 0-.384-.0933-.6907-.28-.92-.1866-.2293-.44-.3653-.76-.408v-.016c.288-.08.504-.2293.648-.448.144-.224.216-.4907.216-.8 0-.272-.04-.5013-.12-.688s-.192-.336-.336-.448-.3173-.192-.52-.24c-.1973-.048-.4133-.072-.648-.072zm5.3654 0h-1.296l1.48 3.464v2.248h1.152v-2.248l1.48-3.464h-1.248l-.8 2.208h-.016z"/></g></g></svg>
